<svg width="17" height="17" viewBox="0 0 17 17" fill="none" xmlns="http://www.w3.org/2000/svg">
<rect width="17" height="17" rx="8.5" fill="#E9E79A"/>
<path d="M5.39688 7.89895C5.49668 7.83297 5.6335 7.84423 5.72042 7.93274L6.46247 8.6746L6.56066 8.78242C6.87777 9.16542 6.984 9.6675 6.86972 10.1326C7.37998 10.0087 7.93531 10.1487 8.32807 10.5397L9.07012 11.2816C9.16992 11.3813 9.16992 11.5455 9.07012 11.6453L8.951 11.7643C8.34738 12.3678 7.36871 12.3678 6.76509 11.7643L6.27254 11.2735L4.90915 12.6365C4.75785 12.7878 4.51479 12.7878 4.36348 12.6365C4.21217 12.4853 4.21217 12.2407 4.36348 12.091L5.72686 10.728L5.23592 10.2372C4.63229 9.63371 4.63229 8.65529 5.23592 8.05344L5.35503 7.93435L5.39527 7.90056L5.39688 7.89895ZM7.07093 6.22534C7.17072 6.15936 7.30754 6.17063 7.39447 6.25913L8.13652 7.00099L8.23471 7.10881C8.55181 7.49181 8.65805 7.99389 8.54376 8.45896C9.05402 8.33505 9.60935 8.47506 10.0021 8.8661L10.7442 9.60796C10.844 9.70773 10.844 9.87188 10.7442 9.97165L10.625 10.0907C10.0214 10.6942 9.04276 10.6942 8.43913 10.0907L6.91157 8.56356C6.30795 7.9601 6.30795 6.98168 6.91157 6.37983L7.03068 6.26074L7.07093 6.22695V6.22534ZM12.085 4.36506C12.2363 4.21379 12.481 4.21379 12.6323 4.36506C12.7739 4.50667 12.782 4.73036 12.658 4.88324L12.6323 4.9122L10.7892 6.75317C10.9132 6.76926 11.0339 6.80145 11.1514 6.84812L12.0898 5.90993C12.2411 5.75866 12.4858 5.75866 12.6371 5.90993C12.7788 6.05154 12.7868 6.27523 12.6629 6.4265L12.6355 6.45546L11.7872 7.30353L12.415 7.93113C12.5148 8.03091 12.5148 8.19505 12.415 8.29482L12.2959 8.41391C11.6923 9.01737 10.7136 9.01737 10.11 8.41391L8.58239 6.88674C7.97877 6.28327 7.97877 5.30486 8.58239 4.703L8.70151 4.58392L8.74175 4.55012C8.84155 4.48414 8.97837 4.49541 9.06529 4.58392L9.69306 5.21152L10.5413 4.36345C10.6927 4.21218 10.9373 4.21218 11.0886 4.36345C11.2303 4.50506 11.2383 4.72875 11.1144 4.88002L11.087 4.90898L10.1486 5.84717C10.1937 5.96143 10.2242 6.08051 10.2403 6.20281L12.085 4.36506Z" fill="black"/>
</svg>
