<svg width="17" height="17" viewBox="0 0 17 17" fill="none" xmlns="http://www.w3.org/2000/svg">
<rect width="17" height="17" rx="8.5" fill="#A6DEE4"/>
<path d="M6.5 5.5H10.5M6.5 5.5V4.5C6.5 4.36739 6.55268 4.24021 6.64645 4.14645C6.74021 4.05268 6.86739 4 7 4H10C10.1326 4 10.2598 4.05268 10.3536 4.14645C10.4473 4.24021 10.5 4.36739 10.5 4.5V5.5M6.5 5.5L5.953 6.3795C5.65696 6.85517 5.50003 7.40423 5.5 7.9645V12C5.5 12.2652 5.60536 12.5196 5.79289 12.7071C5.98043 12.8946 6.23478 13 6.5 13H10.5C10.7652 13 11.0196 12.8946 11.2071 12.7071C11.3946 12.5196 11.5 12.2652 11.5 12V7.9645C11.5 7.40423 11.343 6.85517 11.047 6.3795L10.5 5.5" stroke="black" stroke-width="0.5" stroke-linecap="round" stroke-linejoin="round"/>
<path d="M7.5 7.5H9.5M7.5 10.5C7.5 10.7652 7.60536 11.0196 7.79289 11.2071C7.98043 11.3946 8.23478 11.5 8.5 11.5C8.76522 11.5 9.01957 11.3946 9.20711 11.2071C9.39464 11.0196 9.5 10.7652 9.5 10.5C9.5 10.2348 9.39464 9.98043 9.20711 9.79289C9.01957 9.60536 8.76522 9.5 8.5 9.5C8.23478 9.5 7.98043 9.60536 7.79289 9.79289C7.60536 9.98043 7.5 10.2348 7.5 10.5Z" stroke="black" stroke-width="0.5" stroke-linecap="round" stroke-linejoin="round"/>
</svg>
