<svg width="247" height="208" viewBox="0 0 247 208" fill="none" xmlns="http://www.w3.org/2000/svg">
<path d="M124.322 206.86C94.6477 207.114 64.9654 207.373 35.2914 207.628C33.5797 207.64 31.9513 207.513 30.4894 206.399C28.4529 204.846 27.5283 202.64 27.4825 200.364C27.3242 193.272 27.5075 186.172 27.5366 179.071C27.5491 174.79 27.4783 170.505 27.5158 166.223C27.5408 163.696 27.6616 161.169 27.8531 158.651C27.9239 157.681 27.6158 157.389 26.7078 157.295C22.9762 156.913 19.8734 155.047 16.9415 152.923C15.8878 152.163 14.8466 151.357 13.7346 150.729C10.8192 149.065 8.84097 146.32 6.10472 144.455C5.32174 143.92 4.85529 142.889 4.35135 142.026C1.8275 137.724 -0.638044 133.43 0.149098 128.126C0.548916 125.406 1.89414 123.273 4.0265 121.675C4.86362 121.051 5.57996 120.278 6.76692 119.933C10.1196 118.951 12.5684 120.447 14.7133 122.493C16.7499 124.436 18.1784 126.897 19.6194 129.305C21.0687 131.729 23.1803 133.546 25.3001 135.341C26.0914 136.003 26.5121 135.834 26.5329 134.671C26.6204 128.512 26.7578 122.361 26.9202 116.202C26.966 114.345 27.1035 112.488 27.2617 110.635C27.3409 109.706 27.0369 109.25 26.0623 109.049C19.9318 107.771 17.4829 99.3066 20.9813 95.2142C21.2562 94.8896 21.4144 94.4746 21.6185 94.0966C22.8346 91.849 24.7795 90.7561 27.3076 90.4767C28.9027 90.3 30.4811 90.3329 32.0679 90.4849C32.6718 90.5424 33.2007 90.3534 33.7588 90.1808C34.7333 89.8768 35.4247 90.2712 35.583 91.2409C35.7287 92.149 35.9703 93.2337 34.6001 93.5583C33.8504 93.735 33.0716 94.0021 32.3303 93.9528C29.9397 93.8089 27.9781 95.0704 25.8666 95.7894C25.0711 96.0606 24.6754 96.907 24.3048 97.6219C23.9341 98.3287 23.8175 99.1628 23.1636 99.7339C22.9262 99.9434 22.9804 100.235 23.0928 100.531C24.1548 103.296 27.2493 105.441 30.3353 105.527C32.3719 105.585 32.4094 105.659 32.4177 107.672C32.4302 111.9 32.4302 116.128 32.5677 120.36C32.7801 126.914 32.6551 133.48 32.6593 140.042C32.6593 141.406 30.6519 142.996 29.2817 142.544C27.8656 142.075 26.3996 141.87 24.9961 141.324C22.8513 140.494 21.506 138.772 20.0692 137.268C17.7244 134.819 15.6837 132.066 13.6888 129.318C11.9895 126.98 9.9488 125.718 6.9585 126.174C6.22966 126.285 5.85067 126.667 5.54247 127.238C4.38467 129.371 4.37634 131.61 4.78032 133.928C5.08435 135.707 6.1547 136.993 7.23754 138.353C10.3903 142.314 14.0261 145.815 18.1659 148.699C21.3394 150.909 24.7712 152.824 28.5695 153.934C29.7481 154.279 30.8684 154.595 31.8347 155.602C33.0133 156.83 32.6635 158.231 32.6968 159.481C32.8759 166.088 32.8425 172.699 32.88 179.306C32.9133 185.744 32.9383 192.179 32.9716 198.617C32.9841 200.811 33.9254 201.736 36.1244 201.736C64.2532 201.736 92.3863 201.736 120.515 201.744C150.485 201.756 180.459 201.789 210.424 201.81C211.203 201.81 211.978 201.732 212.748 201.785C214.043 201.871 214.435 201.226 214.435 200.055C214.447 190.026 214.489 179.996 214.506 169.966C214.514 166.005 214.46 162.04 214.518 158.079C214.543 156.378 215.518 155.059 217.013 154.332C220.436 152.668 223.935 151.148 227.396 149.566C229.478 148.617 231.273 147.281 233.06 145.868C235.904 143.629 237.878 140.703 239.623 137.683C241.485 134.454 242.143 130.908 240.623 127.263C240.273 126.433 238.457 126.158 237.404 126.893C236.187 127.744 235.009 128.627 234.301 130.037C233.339 131.968 231.569 133.389 230.686 135.378C229.224 138.673 226.425 140.555 223.352 142.075C221.627 142.926 219.699 143.374 217.767 143.477C215.389 143.6 214.606 142.573 214.697 139.84C214.83 136.015 214.797 132.181 214.785 128.348C214.76 121.827 214.872 115.302 214.935 108.79C214.96 106.411 215.026 106.398 217.454 106.053C219.991 105.696 221.827 104.032 223.064 102.105C224.48 99.8941 222.223 95.1361 219.233 95.6333C217.575 95.9127 215.876 95.3415 214.197 95.1731C213.685 95.1197 213.381 94.9717 213.394 94.4047C213.414 93.5912 213.406 92.7817 213.394 91.9682C213.394 91.3313 213.731 91.1875 214.322 91.1875C216.546 91.1875 218.775 91.1546 220.99 91.1176C223.01 91.0848 224.48 92.2024 225.726 93.5336C229.174 97.2316 228.987 103.477 225.101 106.941C223.731 108.161 222.198 109.254 220.253 109.554C218.958 109.755 218.608 110.552 218.666 111.826C218.783 114.485 218.72 117.147 218.745 119.81C218.77 122.46 218.812 125.11 218.858 127.76C218.904 130.756 219.041 133.755 218.983 136.742C218.958 137.983 219.383 138.238 220.478 138.086C221.723 137.909 222.744 137.527 223.468 136.364C223.989 135.534 224.83 134.897 225.517 134.162C227.612 131.902 229.232 129.289 230.798 126.684C232.102 124.523 234.018 123.117 236.117 121.963C237.916 120.981 240.935 121.95 242.351 123.52C243.147 124.403 244.084 125.2 245.071 125.878C246.004 126.515 246.441 127.358 246.541 128.385C246.812 131.224 247.549 134.158 246.225 136.841C245.217 138.879 243.709 140.678 242.38 142.552C239.727 146.279 236.454 149.365 232.677 152.011C230.798 153.321 228.924 154.628 226.979 155.836C225.326 156.867 223.31 156.941 221.494 157.566C219.183 158.363 219.104 158.482 219.124 160.906C219.17 166.375 219.091 171.844 219.104 177.321C219.116 183 218.933 188.67 219.274 194.352C219.445 197.196 218.979 200.068 218.525 202.886C218.25 204.608 216.051 206.104 214.073 206.116C199.983 206.231 185.894 206.338 171.808 206.465C155.978 206.613 140.144 206.782 124.318 206.938V206.839L124.309 206.851L124.322 206.86Z" fill="white"/>
<path d="M115.438 0.0205442C118.828 -0.0903945 122.173 0.579346 125.571 0.513605C127.374 0.480734 129.095 1.42988 130.469 2.48174C133.892 5.10729 136.52 8.30808 138.086 12.4785C139.152 15.3219 139.711 18.346 141.127 21.066C141.78 22.3151 142.772 22.8246 144.15 22.9314C147.54 23.1862 150.76 22.2617 154.012 21.5755C159.306 20.4456 164.62 19.6526 170.072 19.8868C172.429 19.9895 174.786 19.7758 177.152 20.0963C179.168 20.3634 180.892 21.1729 182.691 22.0439C185.964 23.6299 188.393 26.2473 191.204 28.3715C192.766 29.5549 194.39 30.5616 196.056 31.56C200.191 34.0335 204.885 34.1773 209.483 34.6992C212.498 35.0361 215.434 35.5497 217.567 37.9739C219.062 39.675 219.674 41.7869 219.932 43.9235C220.157 45.7889 219.42 47.5886 218.541 49.2568C217.396 51.4468 215.73 53.0123 213.098 53.1725C211.078 53.304 209.108 53.8012 207.067 53.8217C204.356 53.8546 201.707 54.401 199.046 54.8694C196.201 55.3748 193.336 55.8186 190.446 55.9419C187.972 56.0528 185.594 56.6773 183.162 57.0184C180.429 57.4087 177.743 57.9346 175.061 58.5962C173.199 59.0564 171.15 56.7883 171.538 54.8982C171.663 54.286 171.971 53.9285 172.671 53.7929C175.332 53.2588 178.022 52.9095 180.717 52.8726C185.39 52.8068 189.883 51.5947 194.465 50.9948C197.388 50.6127 200.337 50.3497 203.202 49.7088C206.409 48.9897 209.858 49.5526 212.848 47.605C214.922 46.2491 215.626 44.2152 214.46 41.9389C213.385 39.8558 211.445 39.4983 209.462 39.3997C206.518 39.2518 203.602 39.2353 200.72 38.3519C197.684 37.4233 194.906 36.1578 192.332 34.2965C189.105 31.9627 185.794 29.7439 182.429 27.6114C179.23 25.5857 175.494 24.9817 171.842 24.5503C169.589 24.2832 167.231 24.7969 164.937 25.0557C161.58 25.4378 158.19 25.5816 154.87 26.2514C150.135 27.2046 145.308 27.5046 140.548 28.2647C139.39 28.4455 136.82 26.7527 136.22 25.3228C135.779 24.2709 135.462 23.1739 135.267 22.0357C134.759 19.1184 134.101 16.156 132.818 13.5468C130.527 8.87099 126.708 5.97836 121.131 6.01945C117.029 6.05232 112.939 6.23311 108.837 6.51251C104.947 6.77959 101.54 8.11496 97.9795 9.2942C94.8768 10.3214 93.0609 12.6511 91.8282 15.2109C89.6667 19.706 88.8712 24.5914 89.2752 29.6042C89.4209 31.4121 89.5709 33.2076 89.6708 35.0155C89.7416 36.277 89.2044 37.1275 87.855 37.3535C85.2353 37.7972 82.6157 38.2451 79.9919 38.7053C75.7272 39.4572 71.4375 40.1064 67.1269 40.6159C63.4869 41.0391 59.9094 42.0129 56.2027 41.8568C55.5322 41.8321 54.9908 42.0375 54.4577 42.4073C52.8459 43.5455 51.2258 44.6795 49.5807 45.7725C47.7982 46.9476 46.782 48.8007 45.6117 50.4319C43.3586 53.5628 40.9847 56.4267 37.7486 58.6742C35.7121 60.0836 33.7005 61.5381 31.6639 62.9598C29.4108 64.5334 26.712 65.0429 24.0715 65.6182C22.4473 65.9674 20.9646 66.6783 19.482 67.3727C17.6328 68.2437 16.9873 70.7378 18.1076 72.4635C18.3366 72.8292 18.5699 73.1908 18.8114 73.5482C20.1483 75.4712 20.8938 75.7177 23.1844 75.1466C26.5621 74.3002 30.0396 74.0742 33.4548 73.4907C40.0643 72.3526 46.8153 72.3033 53.4165 71.0008C55.7654 70.5406 58.2102 70.4502 60.5799 69.9694C61.3379 69.8215 62.0084 70.1009 62.6331 70.5036C63.8659 71.2966 63.641 71.4733 62.8705 72.6813C61.7377 74.4686 60.1384 74.4604 58.3851 74.5508C55.7779 74.6864 53.2416 75.4013 50.6303 75.6027C46.4613 75.9149 42.3549 76.7326 38.2068 77.2051C34.9624 77.5749 31.5889 77.8009 28.4237 78.8856C28.1988 78.9637 27.9448 79.0212 27.7115 79.0089C24.9836 78.8199 22.2848 79.6992 19.5403 79.1404C18.3033 78.8856 17.183 78.8404 16.4209 77.5051C15.9877 76.7367 14.8466 76.3998 14.2094 75.5616C11.5814 72.0978 12.9599 67.6192 15.5546 64.9402C18.4199 61.986 22.289 61.6942 25.8457 60.5479C26.9119 60.2027 27.8656 59.8206 28.8235 59.2166C31.1933 57.721 33.3548 55.9871 35.2956 54.0066C37.3946 51.87 39.2979 49.5773 40.9638 47.0627C42.3007 45.0493 43.9458 43.2127 45.7783 41.5609C47.5775 39.9379 49.5724 38.6519 51.863 37.8054C53.758 37.111 55.7404 36.7412 57.7104 36.3098C63.4369 35.0772 69.3301 35.2004 75.0983 34.1979C77.264 33.8199 79.5213 33.8486 81.7369 33.6021C84.569 33.2898 85.0229 32.6653 84.3191 30.0479C82.8906 24.7927 83.3862 19.7389 86.01 14.8987C87.0762 12.9387 87.8258 10.8638 89.3418 9.08465C91.395 6.66865 93.8772 4.91417 96.701 3.69796C104.227 0.468408 107.479 0.193115 115.426 0L115.438 0.0205442Z" fill="white"/>
<path d="M152.359 107.22C153.188 105.26 153.983 103.596 154.591 101.875C156.553 96.2742 157.332 90.4109 158.431 84.6134C159.018 81.5358 158.265 78.6638 156.728 75.956C156.295 75.1959 155.82 75.4958 155.266 75.7013C151.439 77.1435 148.873 80.0525 146.437 83.1054C146.016 83.6313 145.6 84.1532 145.221 84.7037C144.837 85.2543 144.333 85.1927 143.8 85.0489C143.226 84.901 143.071 84.4901 143.088 83.9559C143.113 83.3848 143.109 82.8178 143.384 82.2795C145.075 78.9678 147.34 76.0875 150.072 73.5482C150.664 72.9977 151.468 72.6772 152.159 72.6197C156.103 72.2951 160.18 71.6993 163.412 74.8014C165.507 76.8107 167.006 79.3294 167.165 82.1932C167.519 88.4798 166.765 94.6389 164.374 100.589C163.266 103.341 162.154 106.045 160.443 108.482C158.244 111.613 155.353 113.022 151.468 112.13C149.544 111.687 148.473 110.318 147.499 108.806C147.257 108.424 147.249 107.721 146.649 107.791C146.083 107.857 146.353 108.498 146.216 108.876C145.233 111.571 143.588 113.572 140.614 114.312C138.844 114.756 137.27 115.734 135.421 116.054C133.143 116.445 130.885 116.12 128.62 116.247C126.05 116.395 123.555 116.987 121.027 117.357C119.861 117.525 118.712 117.583 117.616 117.04C117.229 116.847 116.792 116.638 116.746 116.157C116.7 115.619 117.196 115.487 117.583 115.298C117.629 115.278 117.675 115.261 117.716 115.241C119.915 114.115 120.161 113.93 118.699 112.052C116.9 109.751 116.842 107.13 116.367 104.525C115.801 101.447 115.097 98.3944 114.485 95.3251C114.347 94.6307 114.26 93.9034 114.28 93.1926C114.351 89.433 113.318 85.8542 112.469 82.2426C112.335 81.6838 112.165 81.1455 112.131 80.5661C112.077 79.5841 111.994 78.709 110.74 78.372C109.807 78.1173 110.012 77.39 110.49 76.7819C111.44 75.5739 112.71 74.8014 114.126 74.255C120.244 71.9047 126.367 71.3254 131.964 75.3602C136.079 78.3227 137.532 81.7906 136.679 87.0006C136.541 87.8511 136.166 88.6523 135.571 89.3057C134.292 90.7232 133.255 92.3339 131.818 93.6117C131.26 94.113 131.543 94.3636 132.068 94.4622C133.734 94.754 135.333 95.3128 136.953 95.7401C139.211 96.3359 141.01 97.889 142.726 99.438C143.567 100.19 144.292 101.057 145.083 102.179C145.083 100.745 145.196 99.5654 145.062 98.4232C144.583 94.2075 145.008 90.0493 145.812 85.9241C145.978 85.0777 146.378 84.3134 147.082 83.7217C147.661 83.2328 148.282 83.1095 148.973 83.3643C149.673 83.6231 149.823 84.223 149.835 84.8763C149.86 86.8855 149.923 88.8907 149.914 90.8917C149.893 94.906 150.027 98.9121 150.914 102.853C151.222 104.225 151.551 105.614 152.363 107.216V107.208L152.359 107.22ZM135.313 105.006C135.233 99.927 131.627 96.9358 126.575 97.6055C125.263 97.7822 124.934 98.2218 125.246 99.4134C126.2 103.103 126.629 106.863 126.879 110.651C126.937 111.58 127.308 111.744 128.203 111.456C129.586 111.013 130.969 110.585 132.218 109.858C134.08 108.773 135.55 107.409 135.313 105.006ZM122.656 75.956C121.194 75.9191 120.103 76.0998 119.007 76.3217C118.15 76.4984 117.9 76.7655 118.249 77.6653C119.586 81.0756 121.007 84.4613 122.023 87.9867C122.452 89.4823 122.781 89.4741 123.914 88.4428C126.542 86.0391 126.587 82.8507 126.587 79.7238C126.587 78.4747 126.496 76.9709 124.855 76.2765C123.993 75.9108 123.164 75.9889 122.656 75.9519V75.9601V75.956Z" fill="white"/>
<path d="M163.625 117.007C163.725 109.188 165.957 101.776 168.089 94.3431C168.793 91.8736 168.631 89.2317 169.788 86.8609C170.288 85.8336 170.596 84.7243 171.354 83.8162C171.933 83.1218 171.975 82.563 170.9 82.2713C170.143 82.0699 168.943 82.0124 169.022 81.0715C169.101 80.1224 170.338 80.0525 171.15 79.9087C178.339 78.6432 184.811 81.0592 187.189 88.2866C188.663 92.7817 189.375 97.7041 185.939 101.936C183.749 104.632 181.046 106.674 177.414 107.15C176.96 107.208 176.29 107.035 176.098 107.532C175.873 108.128 176.585 108.383 176.927 108.74C179.068 110.996 181.233 113.223 183.391 115.458C185.069 117.192 183.765 118.614 182.145 119.128C180.696 119.588 179.322 119.304 178.347 118.068C176.59 115.853 174.72 113.72 173.304 111.259C173.158 111.013 173.02 110.754 172.837 110.532C172.387 109.994 172.158 108.975 171.409 109.081C170.626 109.192 170.955 110.211 170.788 110.815C170.301 112.562 169.634 114.259 169.097 115.98C168.597 117.57 168.381 119.222 167.148 120.496C166.715 120.944 166.332 121.412 165.628 121.494C163.904 121.696 163.437 121.293 163.516 119.58C163.554 118.721 163.595 117.866 163.633 116.999L163.625 117.007ZM179.334 93.9486C179.28 91.3231 178.709 88.8413 177.393 86.5568C177.168 86.1624 176.985 85.5378 176.41 85.6529C175.923 85.7515 176.011 86.3596 175.977 86.7622C175.582 91.7709 173.962 96.5331 173.029 101.431C172.941 101.875 172.429 102.359 172.883 102.75C173.395 103.194 174.016 102.894 174.478 102.548C177.368 100.387 179.405 97.7411 179.326 93.9486H179.338H179.334Z" fill="white"/>
<path d="M162.925 144.902C165.132 144.533 166.961 145.416 168.26 147.207C169.21 148.526 168.951 150.223 169.176 151.748C169.372 153.104 169.31 154.509 168.972 155.873C168.893 156.185 168.735 156.576 169.085 156.789C169.347 156.954 169.626 156.711 169.888 156.588C170.559 156.276 171.034 155.82 171.463 155.187C172.883 153.05 173.787 150.646 175.573 148.666C178.43 145.49 183.799 144.783 186.877 147.717C188.484 149.249 188.834 151.46 188.588 153.568C188.047 158.318 187.139 162.994 184.228 167C183.074 168.586 181.825 170.098 180.592 171.626C178.651 174.03 173.087 175.464 170.234 174.33C168.248 173.537 167.548 171.881 167.131 169.983C166.994 169.354 167.219 168.306 166.611 168.175C165.761 167.998 165.703 169.112 165.378 169.675C164.333 171.528 163.029 173.183 161.322 174.457C158.169 176.816 152.097 176.836 150.306 173.418C149.673 172.218 149.606 170.899 149.569 169.683C149.456 165.878 149.623 162.049 151.068 158.453C151.705 156.867 152.122 155.01 154.116 154.349C154.454 154.238 154.437 154.012 154.321 153.666C153.717 151.978 154.321 150.568 155.462 149.307C155.812 148.917 156.178 148.526 156.49 148.099C158.044 145.938 160.001 144.574 162.937 144.898L162.925 144.906V144.902ZM164.116 153.021C164.062 151.041 164.174 149.722 163.604 148.428C162.763 146.517 162.379 146.295 160.734 147.536C159.439 148.51 157.523 149.171 157.048 150.601C156.586 152.011 154.645 153.141 155.791 155.01C155.857 155.113 155.691 155.368 155.62 155.544C154.429 158.203 154.15 161.071 153.717 163.885C153.296 166.65 153.479 169.407 154.62 172.037C155.383 173.796 156.011 173.985 157.236 172.588C159.581 169.913 161.409 167.045 162.304 163.462C163.225 159.785 163.891 156.128 164.116 153.021ZM170.801 165.866C170.767 167.341 171.163 168.725 171.559 170.102C171.808 170.961 172.058 172.103 172.995 172.284C174.007 172.477 174.686 171.466 175.228 170.71C177.652 167.312 180.542 164.202 181.304 159.838C181.704 157.553 182.608 155.343 182.72 152.993C182.787 151.616 182.741 150.211 181.812 149.044C181.583 148.752 181.3 148.317 180.883 148.678C180.013 149.447 178.88 149.763 178.014 150.577C176.506 151.978 175.519 153.72 174.42 155.388C173.399 156.945 172.242 158.498 171.654 160.228C171.05 162.003 171.063 163.984 170.813 165.874L170.805 165.866H170.801Z" fill="white"/>
<path d="M65.536 81.7454C68.3014 81.8686 70.7961 83.1013 72.8951 84.9996C75.444 87.3005 78.4051 89.0386 81.0539 91.1834C83.7152 93.3446 85.8934 95.9661 87.8758 98.7436C88.9503 100.252 90.3788 101.492 91.0244 103.329C91.9448 105.967 92.3613 108.687 92.5986 111.428C92.7569 113.264 89.8666 114.349 87.9716 113.33C85.9767 112.258 85.2062 110.191 83.861 108.593C83.736 108.449 83.6694 108.26 83.5653 108.099C82.0784 105.827 82.0909 105.844 79.6129 107.085C78.6259 107.586 77.593 108.001 76.5518 108.391C75.319 108.851 74.6901 109.64 74.7734 110.988C74.8068 111.493 74.686 112.048 74.4986 112.521C74.1945 113.268 74.1612 114.222 72.9326 114.287C71.7415 114.345 70.9294 114.049 70.3171 112.968C68.9553 110.577 68.0057 108.013 67.4601 105.367C66.2357 99.4093 63.8576 93.8171 62.125 88.0278C61.7294 86.7088 61.4878 85.3365 60.8673 84.0833C60.5507 83.4464 61.0505 83.0972 61.492 82.8095C62.6581 82.0576 63.9825 81.8111 65.536 81.733V81.7454ZM72.337 94.5362C72.2121 94.6266 72.0955 94.717 71.9664 94.8074C73.0867 96.9193 73.8697 99.1093 74.0779 101.497C74.2737 103.724 74.3736 103.711 76.6184 103.095C76.8933 103.017 77.1848 102.98 77.468 102.951C78.8841 102.807 79.109 102.47 78.3052 101.316C77.1932 99.7174 76.0354 98.1396 74.7776 96.6563C74.0946 95.8428 73.1575 95.2388 72.3287 94.5403L72.337 94.5321V94.5362Z" fill="white"/>
<path d="M44.2498 115.306C43.7501 109.706 44.0208 104.011 42.7672 98.5135C42.2133 96.0893 42.9838 93.9486 42.9588 91.6723C42.9588 91.3477 43.1628 91.1793 43.471 91.0765C44.583 90.6985 46.5571 91.1752 47.3359 92.1038C48.752 93.8007 50.5761 94.8567 52.4961 95.925C55.2532 97.4535 57.7978 99.3435 60.2467 101.361C62.4249 103.152 64.3573 105.149 65.9441 107.401C67.7558 109.961 69.4925 112.599 70.6253 115.561C71.25 117.196 71.8956 118.828 72.5744 120.438C73.5865 122.85 72.5661 125.003 71.779 127.201C71.6457 127.567 71.4416 127.559 71.1126 127.403C70.0214 126.91 69.1885 126.228 68.7345 125.057C67.5101 121.938 65.5818 119.185 63.9159 116.292C63.1246 114.928 61.6627 114.222 60.6882 113.03C60.3842 112.66 60.0551 112.784 59.6761 113.03C57.523 114.448 55.1532 115.487 53.0084 116.929C51.9422 117.644 51.205 118.285 51.0842 119.682C50.926 121.474 50.5386 123.257 49.8181 124.95C49.0477 126.762 47.5025 126.104 46.1823 126.158C44.9454 126.211 45.0703 125.151 44.937 124.416C44.3831 121.4 44.3623 118.343 44.2457 115.294V115.302L44.2498 115.306ZM51.5507 112.858C51.6756 112.767 51.8464 112.668 51.9797 112.541C53.2832 111.321 54.6868 110.248 56.3652 109.554C57.0648 109.262 56.7275 108.773 56.4026 108.399C55.8362 107.754 55.2573 107.113 54.6368 106.522C53.0583 105.001 52.0296 102.996 50.193 101.714C49.9348 101.534 49.7057 101.143 49.3434 101.41C49.0851 101.599 49.1976 101.949 49.3225 102.207C49.6765 102.914 49.6515 103.682 49.7515 104.443C50.0805 106.945 50.4554 109.439 50.8302 111.933C50.8885 112.323 50.876 112.837 51.5548 112.862H51.5465L51.5507 112.858Z" fill="white"/>
<path d="M193.936 107.241C193.632 109.217 194.344 111.099 194.523 113.034C194.581 113.716 195.01 114.107 195.518 113.425C196.176 112.529 197.164 112.114 198.001 111.481C198.763 110.898 199.596 110.441 199.916 109.427C200.108 108.843 200.72 108.654 201.312 108.531C201.616 108.465 202.07 108.506 202.061 108.038C202.061 107.68 201.691 107.635 201.416 107.59C200.191 107.38 199.442 106.427 198.492 105.79C197.642 105.219 196.93 104.295 197.351 103.387C197.772 102.483 198.959 102.528 199.946 102.618C203.302 102.943 206.214 104.406 209.021 106.119C209.679 106.522 210.366 106.904 210.928 107.405C211.503 107.919 211.948 108.51 211.474 109.414C211.02 110.273 210.362 110.343 209.537 110.252C206.159 109.883 206.559 109.168 206.326 112.911C206.134 115.865 205.056 118.569 204.16 121.318C203.819 122.369 203.89 123.376 203.79 124.403C203.677 125.566 203.215 126.256 201.941 126.318C201.058 126.363 200.183 126.306 199.346 126.109C197.701 125.726 197.126 124.21 197.876 122.46C198.475 121.051 198.001 120.327 196.447 120.29C194.59 120.245 192.807 119.773 191.1 119.119C188.563 118.15 187.747 115.951 187.122 113.548C186.314 110.429 186.827 107.421 187.414 104.365C187.876 101.969 188.388 99.6147 189.263 97.3302C189.933 95.5757 191.166 94.0883 191.753 92.3338C192.611 89.7699 194.452 87.9826 196.218 86.0966C197.014 85.2461 197.996 84.7982 199.063 84.9461C201.353 85.2625 203.665 85.6364 205.547 87.169C205.66 87.2594 205.776 87.3375 205.889 87.4361C207.047 88.451 207.534 90.152 206.909 91.0026C206.264 91.8777 205.072 91.9106 203.465 91.1382C202.748 90.793 202.182 90.2876 201.711 89.6713C201.099 88.8578 200.558 88.9892 200 89.7288C197.555 92.9173 195.648 96.3934 194.777 100.309C194.277 102.577 193.686 104.858 193.936 107.241Z" fill="white"/>
<path d="M104.885 120.023C102.153 119.456 99.1748 119.654 96.9425 117.476C96.0846 116.646 95.5806 115.701 95.2891 114.534C93.8481 108.666 93.7731 102.626 92.8194 96.7015C92.4029 94.1089 91.4117 91.6353 91.016 89.0632C90.3788 84.9174 88.9795 80.9565 88.3672 76.8107C88.209 75.7341 88.6296 75.2698 89.5667 75.089C90.8953 74.822 91.9948 75.1671 92.9527 76.2067C94.5394 77.9406 95.0059 80.1511 95.8638 82.2097C97.7463 86.7376 99.912 91.1628 101.67 95.736C102.527 97.963 102.69 100.453 103.248 102.803C104.056 106.226 104.143 109.813 105.63 113.079C106.276 114.497 106.422 114.522 107.65 113.515C108.579 112.755 109.508 111.986 110.436 111.222C111.761 110.129 113.677 109.981 115.197 110.799C115.709 111.078 115.867 111.469 115.809 111.974C115.301 116.445 113.993 119.119 109.054 119.423C107.646 119.514 106.342 120.216 104.885 120.019H104.876L104.885 120.023Z" fill="white"/>
<path d="M191.795 180.099C190.025 179.885 188.759 180.078 187.443 179.684C186.568 179.417 185.456 180.066 184.382 180.033C183.32 180 182.816 179.663 182.991 178.599C183.17 177.539 182.229 176.832 182.133 175.961C182.033 175.032 183.482 175.221 183.899 174.219C185.202 171.076 185.952 167.768 186.968 164.547C188.418 159.928 190.117 155.458 192.362 151.172C192.586 150.737 192.836 150.515 193.257 150.355C194.481 149.874 195.76 149.874 196.964 150.244C201.836 151.739 205.247 154.764 206.743 159.678C208.213 164.506 207.65 168.984 204.839 173.327C201.612 178.303 196.893 179.922 191.791 180.103H191.799L191.795 180.099ZM201.607 165.229C201.495 164.197 201.449 163.195 201.27 162.209C200.637 158.683 199.117 155.643 196.168 153.428C195.069 152.602 194.731 152.758 194.556 154.131C194.444 155.027 194.411 155.91 194.127 156.802C193.474 158.84 192.736 160.902 192.474 163.006C191.92 167.411 190.138 171.445 188.901 175.632C188.572 176.75 188.776 177.087 189.788 177.329C192.487 177.974 196.077 176.36 197.917 174.297C199.504 172.522 199.912 170.348 200.92 168.384C201.445 167.365 201.495 166.281 201.603 165.221V165.233L201.607 165.229Z" fill="white"/>
<path d="M67.3227 157.36V154.361C67.3352 151.485 69.3176 149.476 72.2871 149.488C73.7073 149.496 75.1566 149.171 76.5684 149.812C79.1048 150.967 80.071 153.325 80.9748 155.594C82.7573 160.076 81.7119 163.811 78.0761 166.897C77.3847 167.48 76.6059 167.957 75.6605 168.146C75.0608 168.261 74.4361 168.569 75.2191 169.284C77.5847 171.445 79.5629 174.005 82.1909 175.904C82.8031 176.347 83.2821 177.001 84.14 177.066C84.5898 177.099 84.8438 177.379 84.8314 177.827C84.8105 178.32 84.4315 178.443 84.0275 178.472C82.195 178.607 80.3667 178.418 78.9632 177.206C77.7846 176.175 76.481 175.226 75.5772 173.894C75.294 173.471 74.9109 172.9 74.3278 173.142C73.7489 173.381 74.1446 173.989 74.1612 174.428C74.232 175.805 74.5902 177.165 74.2945 178.554C74.0987 179.474 73.6906 180.189 72.6494 180.255C71.6499 180.312 70.7253 180.107 70.1672 179.15C69.3884 177.818 69.3967 176.298 69.2176 174.856C68.5138 169.034 67.7433 163.224 67.3143 157.369H67.3227V157.36ZM76.506 159.554C76.5393 158.359 76.406 157.319 76.1645 156.288C75.748 154.546 75.1233 152.902 73.8655 151.571C73.1367 150.799 72.3704 150.979 71.5083 151.448C70.6586 151.908 70.7253 152.454 70.9085 153.239C71.25 154.673 71.6707 156.144 71.6707 157.59C71.6707 160.249 72.5286 162.747 72.8368 165.348C72.9159 165.997 73.3782 166.24 73.803 165.673C75.2191 163.815 76.91 162.049 76.4976 159.554H76.506Z" fill="white"/>
<path d="M98.9666 29.2632C98.7042 26.5883 98.4793 23.9052 98.1503 21.2345C98.0004 20.0183 98.2378 19.3116 99.6246 19.2335C101.824 19.1102 103.977 18.3583 106.209 18.6377C107.271 18.7733 108.171 18.2474 109.158 18.1036C113.014 17.553 116.875 17.0188 120.732 16.4806C121.49 16.3778 122.264 16.3573 123.01 16.1765C123.893 15.967 124.134 16.3573 124.209 17.1133C124.359 18.7117 124.559 20.31 124.709 21.9083C124.926 24.123 125.105 26.3459 125.342 28.5606C125.459 29.633 125.238 30.1918 123.972 30.3602C119.724 30.9273 115.505 31.749 111.253 32.2503C107.525 32.6858 103.781 32.9858 100.066 33.5569C99.3289 33.6678 99.1124 33.3227 99.079 32.6982C99.0207 31.5559 98.9541 30.4178 98.8875 29.2755C98.9125 29.2755 98.9416 29.2755 98.9749 29.2673H98.9666V29.2632ZM121.069 24.423C121.036 20.8811 121.044 20.9674 117.487 21.4605C112.906 22.0974 108.308 22.6479 103.702 23.0794C102.373 23.2026 102.057 23.6464 102.194 24.8256C102.702 29.2344 102.786 29.3453 107.309 28.9057C110.899 28.5565 114.435 27.7634 118.05 27.632C121.098 27.521 121.098 27.4758 121.065 24.423H121.073H121.069Z" fill="white"/>
<path d="M42.8796 151.69C42.5964 156.004 43.5918 157.134 48.6353 159.263C50.447 160.031 52.2254 160.894 54.0995 161.523C54.9949 161.823 55.224 162.809 55.6946 163.499C57.8603 166.675 59.0514 170.164 57.5896 173.898C56.4026 176.918 53.9371 178.681 50.6969 179.445C47.8982 180.107 45.2202 179.996 42.6756 178.665C39.5603 177.033 39.602 174.202 41.018 171.585C41.4011 170.878 42.2424 171.182 42.888 171.228C43.5002 171.273 43.6168 171.774 43.6043 172.288C43.571 173.352 43.6043 174.379 44.3873 175.242C46.5863 177.67 48.4646 177.637 50.7094 175.242C53.8705 171.865 52.8751 163.688 47.3526 161.498C46.3572 161.104 45.2077 160.984 44.179 160.578C38.7357 158.4 36.6908 152.417 39.6811 147.409C40.9972 145.206 42.4673 143.201 45.0536 142.269C47.1652 141.508 49.2351 141.689 51.3091 142.338C51.6965 142.462 52.242 142.651 52.0463 143.201C51.888 143.661 51.33 143.838 50.9468 143.629C48.6687 142.388 47.0277 143.719 45.5617 145.058C43.9375 146.538 42.7505 148.354 42.8963 150.708C42.9213 151.09 42.8963 151.476 42.8963 151.67L42.8838 151.682L42.8796 151.69Z" fill="white"/>
<path d="M108.791 179.018C106.093 178.998 104.156 177.744 103.202 175.263C102.602 173.705 102.298 172.095 102.161 170.402C101.911 167.328 101.366 164.276 101.274 161.186C101.182 158.178 101.003 155.179 100.932 152.175C100.912 151.316 100.853 150.675 99.7996 150.552C99.2207 150.486 98.8667 150.182 99.3664 149.591C100.195 148.609 100.92 147.536 101.653 146.497C103.173 144.319 105.564 144.048 107.763 143.329C108.229 143.181 108.75 143.329 108.995 143.846C109.224 144.335 108.925 144.664 108.579 144.956C107.267 146.086 105.963 147.224 104.627 148.329C104.093 148.765 104.002 149.147 104.093 149.895C104.422 152.446 105.205 154.928 105.285 157.512C105.297 157.89 105.239 158.326 105.639 158.54C106.118 158.807 106.48 158.449 106.792 158.174C108.196 156.958 109.991 156.662 111.665 156.058C112.161 155.877 112.719 155.947 112.989 156.362C113.306 156.843 112.698 157.089 112.444 157.389C110.99 159.078 109.262 160.45 107.275 161.473C106.334 161.962 105.905 162.488 106.088 163.713C106.642 167.394 107.509 170.989 108.533 174.56C108.962 176.06 109.391 176.261 110.582 175.279C111.998 174.116 113.119 172.666 113.972 171.043C114.264 170.496 114.564 170.011 115.288 170.217C116.026 170.431 115.776 171.067 115.767 171.548C115.755 172.842 114.839 173.82 114.455 174.995C113.581 177.67 111.619 179.03 108.787 179.01L108.795 179.002L108.791 179.018Z" fill="white"/>
<path d="M93.7856 180.949C90.8162 180.592 88.5838 179.622 87.8259 175.998C86.3724 169.021 85.5477 161.966 84.4815 154.94C84.2317 153.284 84.4815 151.608 84.2442 149.94C84.1525 149.266 84.5357 148.395 85.2312 148.14C87.147 147.438 88.663 145.995 90.6371 145.412C91.5325 145.145 92.4196 144.964 93.3442 145.017C94.048 145.054 94.2146 145.441 93.7273 145.946C92.2905 147.433 90.8037 148.896 88.7046 149.41C87.8633 149.611 87.5843 149.956 87.7051 150.786C88.0258 153.009 88.5922 155.179 89.1877 157.34C89.4918 158.445 89.7292 159.563 89.9832 160.672C90.1165 161.239 90.433 161.642 90.9703 161.177C92.3863 159.957 94.5978 159.994 95.664 158.215C95.9013 157.821 96.4469 157.89 96.8759 158.026C97.3757 158.19 97.4965 158.609 97.4548 159.066C97.3757 160.002 96.9675 160.717 96.2304 161.371C94.881 162.566 93.3275 163.417 91.7532 164.247C90.7912 164.752 90.4163 165.467 90.6621 166.474C91.5367 170.077 91.9115 173.8 93.3109 177.284C93.9231 178.804 94.2854 178.874 95.7681 178.225C97.5256 177.453 98.3877 175.891 99.4664 174.502C99.7038 174.203 99.8412 173.82 100.099 173.549C100.52 173.101 101.082 173.2 101.595 173.36C101.965 173.475 101.819 173.808 101.778 174.096C101.291 177.527 97.2132 181.027 93.7898 180.949H93.7856Z" fill="white"/>
<path d="M134.771 162.242C134.5 158.363 134.871 154.505 135.329 150.671C135.683 147.733 136.633 144.882 138.057 142.277C138.932 140.666 140.664 139.865 142.434 139.446C145.146 138.801 147.878 138.64 150.518 139.812C151.026 140.037 151.734 140.255 151.493 140.999C151.264 141.702 150.564 141.57 149.998 141.492C148.498 141.282 146.982 141.435 145.533 141.656C143.326 141.993 142.334 143.883 141.543 145.663C140.602 147.795 139.831 150.01 139.898 152.426C139.931 153.556 139.74 154.71 139.511 155.828C139.269 156.982 139.407 157.504 140.814 157.385C142.638 157.237 144.488 157.319 146.324 157.327C146.745 157.327 147.274 157.249 147.345 157.853C147.403 158.355 147.041 158.605 146.599 158.774C144.912 159.419 143.176 159.748 141.36 159.743C139.377 159.735 139.419 159.764 139.323 161.777C139.127 166.116 138.828 170.451 138.844 174.794C138.844 175.546 138.699 176.314 138.553 177.062C138.403 177.831 137.986 178.426 137.083 178.328C136.279 178.242 135.858 177.822 135.725 176.943C134.996 172.066 135.092 167.148 134.771 162.25L134.763 162.238L134.771 162.242Z" fill="white"/>
<path d="M69.809 144.709C67.4768 145.182 65.6984 146.825 63.4369 147.339C61.9834 147.672 61.6378 148.391 61.8127 149.775C62.3208 153.847 63.262 157.849 63.9325 161.888C64.6364 166.116 65.3152 170.353 66.0149 174.581C66.1982 175.686 65.9941 176.771 65.9899 177.868C65.9899 178.915 65.5485 179.659 64.449 179.778C63.4286 179.881 62.8872 179.24 62.5332 178.357C61.2754 175.226 60.7798 171.926 60.2884 168.631C59.5304 163.54 59.5096 158.379 59.0098 153.26C58.8932 152.072 58.8265 150.877 59.0681 149.693C59.2638 148.732 59.0473 148.362 57.9478 148.654C55.7238 149.25 53.4248 148.888 51.1592 148.991C50.8385 149.003 50.4345 148.97 50.3679 148.535C50.3138 148.185 50.6428 148.087 50.901 147.951C51.8506 147.446 52.8626 147.113 53.9371 147.047C56.2277 146.903 58.4142 146.328 60.5674 145.613C63.1995 144.738 65.9983 144.783 68.6929 144.224C69.0427 144.155 69.4759 144.113 69.8132 144.705L69.809 144.709Z" fill="white"/>
<path d="M131.623 142.979C130.673 144.15 129.436 144.537 128.166 144.771C126.696 145.042 125.209 145.182 123.722 145.342C122.689 145.453 122.206 145.843 122.26 146.994C122.631 155.002 123.268 162.994 123.426 171.01C123.46 172.818 123.651 174.63 122.756 176.343C122.302 177.206 121.694 177.699 120.728 177.683C119.799 177.662 119.699 176.898 119.399 176.228C119.078 175.501 118.958 174.794 118.958 174.018C118.97 165.903 118.966 157.784 118.958 149.673C118.958 148.81 119.016 147.959 119.345 147.146C119.732 146.205 119.432 145.749 118.391 145.589C116.634 145.309 114.809 145.186 113.302 144.101C112.827 143.764 111.998 143.456 112.261 142.737C112.523 142.018 113.414 142.178 113.935 142.367C119.17 144.245 124.476 142.758 129.744 142.762C130.311 142.762 130.89 142.593 131.614 142.996L131.627 142.984L131.623 142.979Z" fill="white"/>
</svg>
