<?xml version="1.0" encoding="UTF-8" standalone="no"?><!DOCTYPE svg PUBLIC "-//W3C//DTD SVG 1.1//EN" "http://www.w3.org/Graphics/SVG/1.1/DTD/svg11.dtd"><svg width="100%" height="100%" viewBox="0 0 247 208" version="1.1" xmlns="http://www.w3.org/2000/svg" xmlns:xlink="http://www.w3.org/1999/xlink" xml:space="preserve" xmlns:serif="http://www.serif.com/" style="fill-rule:evenodd;clip-rule:evenodd;stroke-linejoin:round;stroke-miterlimit:2;"><path d="M124.322,206.86c-29.674,0.254 -59.357,0.513 -89.031,0.768c-1.712,0.012 -3.34,-0.115 -4.802,-1.229c-2.037,-1.553 -2.961,-3.759 -3.007,-6.035c-0.158,-7.092 0.025,-14.192 0.054,-21.293c0.012,-4.281 -0.058,-8.566 -0.021,-12.848c0.025,-2.527 0.146,-5.054 0.337,-7.572c0.071,-0.97 -0.237,-1.262 -1.145,-1.356c-3.732,-0.382 -6.834,-2.248 -9.766,-4.372c-1.054,-0.76 -2.095,-1.566 -3.207,-2.194c-2.915,-1.664 -4.894,-4.409 -7.63,-6.274c-0.783,-0.535 -1.249,-1.566 -1.753,-2.429c-2.524,-4.302 -4.989,-8.596 -4.202,-13.9c0.4,-2.72 1.745,-4.853 3.877,-6.451c0.837,-0.624 1.553,-1.397 2.74,-1.742c3.353,-0.982 5.801,0.514 7.946,2.56c2.037,1.943 3.465,4.404 4.906,6.812c1.449,2.424 3.561,4.241 5.681,6.036c0.791,0.662 1.212,0.493 1.233,-0.67c0.087,-6.159 0.225,-12.31 0.387,-18.469c0.046,-1.857 0.183,-3.714 0.341,-5.567c0.079,-0.929 -0.225,-1.385 -1.199,-1.586c-6.131,-1.278 -8.579,-9.742 -5.081,-13.835c0.275,-0.325 0.433,-0.74 0.637,-1.118c1.216,-2.248 3.161,-3.34 5.689,-3.62c1.595,-0.177 3.174,-0.144 4.76,0.008c0.604,0.058 1.133,-0.132 1.691,-0.304c0.974,-0.304 1.666,0.09 1.824,1.06c0.146,0.908 0.387,1.993 -0.983,2.317c-0.75,0.177 -1.529,0.444 -2.27,0.394c-2.391,-0.144 -4.352,1.118 -6.464,1.837c-0.795,0.271 -1.191,1.118 -1.562,1.832c-0.371,0.707 -0.487,1.541 -1.141,2.112c-0.237,0.209 -0.183,0.501 -0.071,0.797c1.062,2.765 4.157,4.91 7.242,4.996c2.037,0.058 2.074,0.132 2.082,2.145c0.012,4.228 0.012,8.456 0.15,12.688c0.212,6.554 0.087,13.12 0.092,19.682c0,1.364 -2.007,2.954 -3.378,2.502c-1.416,-0.469 -2.882,-0.674 -4.286,-1.22c-2.145,-0.83 -3.49,-2.552 -4.927,-4.056c-2.345,-2.449 -4.385,-5.202 -6.38,-7.95c-1.699,-2.338 -3.74,-3.6 -6.73,-3.144c-0.729,0.111 -1.108,0.493 -1.416,1.064c-1.158,2.133 -1.166,4.372 -0.762,6.69c0.304,1.779 1.374,3.065 2.457,4.425c3.153,3.961 6.789,7.462 10.928,10.346c3.174,2.21 6.605,4.125 10.404,5.235c1.179,0.345 2.299,0.661 3.265,1.668c1.179,1.228 0.829,2.629 0.862,3.879c0.179,6.607 0.146,13.218 0.183,19.825c0.033,6.438 0.058,12.873 0.092,19.311c0.012,2.194 0.954,3.119 3.153,3.119c28.129,0 56.262,0 84.391,0.008c29.97,0.012 59.944,0.045 89.909,0.066c0.779,0 1.554,-0.078 2.324,-0.025c1.295,0.086 1.687,-0.559 1.687,-1.73c0.012,-10.029 0.054,-20.059 0.071,-30.089c0.008,-3.961 -0.046,-7.926 0.012,-11.887c0.025,-1.701 1,-3.02 2.495,-3.747c3.423,-1.664 6.922,-3.184 10.383,-4.766c2.082,-0.949 3.877,-2.285 5.664,-3.698c2.844,-2.239 4.818,-5.165 6.563,-8.185c1.862,-3.229 2.52,-6.775 1,-10.42c-0.35,-0.83 -2.166,-1.105 -3.219,-0.37c-1.217,0.851 -2.395,1.734 -3.103,3.144c-0.962,1.931 -2.732,3.352 -3.615,5.341c-1.462,3.295 -4.261,5.177 -7.334,6.697c-1.725,0.851 -3.653,1.299 -5.585,1.402c-2.378,0.123 -3.161,-0.904 -3.07,-3.637c0.133,-3.825 0.1,-7.659 0.088,-11.492c-0.025,-6.521 0.087,-13.046 0.15,-19.558c0.025,-2.379 0.091,-2.392 2.519,-2.737c2.537,-0.357 4.373,-2.021 5.61,-3.948c1.416,-2.211 -0.841,-6.969 -3.831,-6.472c-1.658,0.279 -3.357,-0.292 -5.036,-0.46c-0.512,-0.053 -0.816,-0.201 -0.803,-0.768c0.02,-0.814 0.012,-1.623 0,-2.437c0,-0.637 0.337,-0.781 0.928,-0.781c2.224,0 4.453,-0.033 6.668,-0.07c2.02,-0.033 3.49,1.085 4.736,2.416c3.448,3.698 3.261,9.943 -0.625,13.407c-1.37,1.22 -2.903,2.313 -4.848,2.613c-1.295,0.201 -1.645,0.998 -1.587,2.272c0.117,2.659 0.054,5.321 0.079,7.984c0.025,2.65 0.067,5.3 0.113,7.95c0.046,2.996 0.183,5.995 0.125,8.982c-0.025,1.241 0.4,1.496 1.495,1.344c1.245,-0.177 2.266,-0.559 2.99,-1.722c0.521,-0.83 1.362,-1.467 2.049,-2.202c2.095,-2.26 3.715,-4.873 5.281,-7.478c1.304,-2.161 3.22,-3.567 5.319,-4.721c1.799,-0.982 4.818,-0.013 6.234,1.557c0.796,0.883 1.733,1.68 2.72,2.358c0.933,0.637 1.37,1.48 1.47,2.507c0.271,2.839 1.008,5.773 -0.316,8.456c-1.008,2.038 -2.516,3.837 -3.845,5.711c-2.653,3.727 -5.926,6.813 -9.703,9.459c-1.879,1.31 -3.753,2.617 -5.698,3.825c-1.653,1.031 -3.669,1.105 -5.485,1.73c-2.311,0.797 -2.39,0.916 -2.37,3.34c0.046,5.469 -0.033,10.938 -0.02,16.415c0.012,5.679 -0.171,11.349 0.17,17.031c0.171,2.844 -0.295,5.716 -0.749,8.534c-0.275,1.722 -2.474,3.218 -4.452,3.23c-14.09,0.115 -28.179,0.222 -42.265,0.349c-15.83,0.148 -31.664,0.317 -47.49,0.473l0,-0.099l-0.009,0.012l0.013,0.009Z" style="fill:#ffbfd3;fill-rule:nonzero;"/><path d="M115.438,0.021c3.39,-0.111 6.735,0.559 10.133,0.493c1.803,-0.033 3.524,0.916 4.898,1.968c3.423,2.626 6.051,5.826 7.617,9.997c1.066,2.843 1.625,5.867 3.041,8.587c0.653,1.249 1.645,1.759 3.023,1.865c3.39,0.255 6.61,-0.67 9.862,-1.356c5.294,-1.13 10.608,-1.923 16.06,-1.689c2.357,0.103 4.714,-0.111 7.08,0.209c2.016,0.267 3.74,1.077 5.539,1.948c3.273,1.586 5.702,4.203 8.513,6.328c1.562,1.183 3.186,2.19 4.852,3.188c4.135,2.473 8.829,2.617 13.427,3.139c3.015,0.337 5.951,0.851 8.084,3.275c1.495,1.701 2.107,3.813 2.365,5.95c0.225,1.865 -0.512,3.665 -1.391,5.333c-1.145,2.19 -2.811,3.756 -5.443,3.916c-2.02,0.132 -3.99,0.629 -6.031,0.649c-2.711,0.033 -5.36,0.579 -8.021,1.048c-2.845,0.505 -5.71,0.949 -8.6,1.072c-2.474,0.111 -4.852,0.735 -7.284,1.077c-2.733,0.39 -5.419,0.916 -8.101,1.578c-1.862,0.46 -3.911,-1.808 -3.523,-3.698c0.125,-0.612 0.433,-0.97 1.133,-1.105c2.661,-0.534 5.351,-0.883 8.046,-0.92c4.673,-0.066 9.166,-1.278 13.748,-1.878c2.923,-0.382 5.872,-0.645 8.737,-1.286c3.207,-0.719 6.656,-0.156 9.646,-2.104c2.074,-1.356 2.778,-3.39 1.612,-5.666c-1.075,-2.083 -3.015,-2.441 -4.998,-2.539c-2.944,-0.148 -5.86,-0.164 -8.742,-1.048c-3.036,-0.929 -5.814,-2.194 -8.388,-4.055c-3.227,-2.334 -6.538,-4.553 -9.903,-6.685c-3.199,-2.026 -6.935,-2.63 -10.587,-3.061c-2.253,-0.267 -4.611,0.247 -6.905,0.505c-3.357,0.382 -6.747,0.526 -10.067,1.196c-4.735,0.953 -9.562,1.253 -14.322,2.013c-1.158,0.181 -3.728,-1.512 -4.328,-2.942c-0.441,-1.052 -0.758,-2.149 -0.953,-3.287c-0.508,-2.917 -1.166,-5.88 -2.449,-8.489c-2.291,-4.676 -6.11,-7.568 -11.687,-7.527c-4.102,0.033 -8.192,0.214 -12.294,0.493c-3.89,0.267 -7.297,1.602 -10.858,2.782c-3.103,1.027 -4.919,3.357 -6.151,5.917c-2.161,4.495 -2.957,9.38 -2.553,14.393c0.146,1.808 0.296,3.603 0.396,5.411c0.071,1.261 -0.466,2.112 -1.816,2.338c-2.62,0.444 -5.239,0.892 -7.863,1.352c-4.265,0.752 -8.554,1.401 -12.865,1.911c-3.64,0.423 -7.218,1.397 -10.924,1.241c-0.67,-0.025 -1.212,0.181 -1.745,0.55c-1.612,1.138 -3.232,2.272 -4.877,3.365c-1.782,1.175 -2.799,3.028 -3.969,4.659c-2.253,3.131 -4.627,5.995 -7.863,8.242c-2.037,1.409 -4.048,2.864 -6.085,4.286c-2.253,1.574 -4.952,2.083 -7.592,2.658c-1.624,0.349 -3.107,1.06 -4.59,1.754c-1.849,0.871 -2.495,3.365 -1.374,5.091c0.229,0.366 0.462,0.727 0.704,1.085c1.337,1.923 2.082,2.169 4.373,1.598c3.378,-0.846 6.855,-1.072 10.27,-1.656c6.61,-1.138 13.361,-1.187 19.962,-2.49c2.349,-0.46 4.794,-0.551 7.163,-1.031c0.758,-0.148 1.428,0.132 2.053,0.534c1.233,0.793 1.008,0.97 0.237,2.178c-1.133,1.787 -2.732,1.779 -4.485,1.87c-2.607,0.136 -5.144,0.851 -7.755,1.052c-4.169,0.312 -8.275,1.13 -12.423,1.602c-3.244,0.37 -6.618,0.596 -9.783,1.68c-0.225,0.078 -0.479,0.136 -0.712,0.123c-2.728,-0.189 -5.427,0.69 -8.171,0.132c-1.237,-0.255 -2.357,-0.3 -3.119,-1.635c-0.433,-0.768 -1.574,-1.105 -2.211,-1.944c-2.628,-3.464 -1.25,-7.942 1.345,-10.621c2.865,-2.954 6.734,-3.246 10.291,-4.392c1.066,-0.345 2.02,-0.727 2.978,-1.331c2.37,-1.496 4.531,-3.23 6.472,-5.21c2.099,-2.137 4.002,-4.429 5.668,-6.944c1.337,-2.013 2.982,-3.85 4.815,-5.502c1.799,-1.623 3.794,-2.909 6.085,-3.755c1.895,-0.694 3.877,-1.064 5.847,-1.496c5.727,-1.233 11.62,-1.109 17.388,-2.112c2.166,-0.378 4.423,-0.349 6.639,-0.596c2.832,-0.312 3.286,-0.937 2.582,-3.554c-1.428,-5.255 -0.933,-10.309 1.691,-15.149c1.066,-1.96 1.816,-4.035 3.332,-5.814c2.053,-2.416 4.535,-4.17 7.359,-5.387c7.526,-3.23 10.778,-3.505 18.725,-3.698l0.012,0.021Z" style="fill:#ffbfd3;fill-rule:nonzero;"/><path d="M152.359,107.22c0.829,-1.96 1.624,-3.624 2.232,-5.345c1.962,-5.601 2.741,-11.464 3.84,-17.262c0.587,-3.078 -0.166,-5.95 -1.703,-8.657c-0.433,-0.76 -0.908,-0.46 -1.462,-0.255c-3.827,1.442 -6.393,4.351 -8.829,7.404c-0.421,0.526 -0.837,1.048 -1.216,1.598c-0.384,0.551 -0.888,0.489 -1.421,0.345c-0.574,-0.148 -0.729,-0.559 -0.712,-1.093c0.025,-0.571 0.021,-1.138 0.296,-1.676c1.691,-3.312 3.956,-6.192 6.688,-8.731c0.592,-0.55 1.396,-0.871 2.087,-0.928c3.944,-0.325 8.021,-0.92 11.253,2.182c2.095,2.009 3.594,4.528 3.753,7.392c0.354,6.287 -0.4,12.446 -2.791,18.396c-1.108,2.752 -2.22,5.456 -3.931,7.893c-2.199,3.131 -5.09,4.54 -8.975,3.648c-1.924,-0.443 -2.995,-1.812 -3.969,-3.324c-0.242,-0.382 -0.25,-1.085 -0.85,-1.015c-0.566,0.066 -0.296,0.707 -0.433,1.085c-0.983,2.695 -2.628,4.696 -5.602,5.436c-1.77,0.444 -3.344,1.422 -5.193,1.742c-2.278,0.391 -4.536,0.066 -6.801,0.193c-2.57,0.148 -5.065,0.74 -7.593,1.11c-1.166,0.168 -2.315,0.226 -3.411,-0.317c-0.387,-0.193 -0.824,-0.402 -0.87,-0.883c-0.046,-0.538 0.45,-0.67 0.837,-0.859c0.046,-0.02 0.092,-0.037 0.133,-0.057c2.199,-1.126 2.445,-1.311 0.983,-3.189c-1.799,-2.301 -1.857,-4.922 -2.332,-7.527c-0.566,-3.078 -1.27,-6.131 -1.882,-9.2c-0.138,-0.694 -0.225,-1.422 -0.205,-2.133c0.071,-3.76 -0.962,-7.338 -1.811,-10.95c-0.134,-0.559 -0.304,-1.097 -0.338,-1.676c-0.054,-0.982 -0.137,-1.857 -1.391,-2.194c-0.933,-0.255 -0.728,-0.982 -0.25,-1.59c0.95,-1.208 2.22,-1.98 3.636,-2.527c6.118,-2.35 12.241,-2.93 17.838,1.105c4.115,2.962 5.568,6.43 4.715,11.64c-0.138,0.85 -0.513,1.652 -1.108,2.305c-1.279,1.418 -2.316,3.028 -3.753,4.306c-0.558,0.501 -0.275,0.752 0.25,0.85c1.666,0.292 3.265,0.851 4.885,1.278c2.258,0.596 4.057,2.149 5.773,3.698c0.841,0.752 1.566,1.619 2.357,2.741c0,-1.434 0.113,-2.614 -0.021,-3.756c-0.479,-4.216 -0.054,-8.374 0.75,-12.499c0.166,-0.846 0.566,-1.611 1.27,-2.202c0.579,-0.489 1.2,-0.612 1.891,-0.357c0.7,0.259 0.85,0.859 0.862,1.512c0.025,2.009 0.088,4.014 0.079,6.015c-0.021,4.014 0.113,8.02 1,11.961c0.308,1.372 0.637,2.761 1.449,4.363l0,-0.008l-0.004,0.012Zm-17.046,-2.214c-0.08,-5.079 -3.686,-8.07 -8.738,-7.4c-1.312,0.177 -1.641,0.616 -1.329,1.808c0.954,3.69 1.383,7.45 1.633,11.238c0.058,0.929 0.429,1.093 1.324,0.805c1.383,-0.443 2.766,-0.871 4.015,-1.598c1.862,-1.085 3.332,-2.449 3.095,-4.852Zm-12.657,-29.05c-1.462,-0.037 -2.553,0.144 -3.649,0.366c-0.857,0.177 -1.107,0.444 -0.758,1.344c1.337,3.41 2.758,6.796 3.774,10.321c0.429,1.496 0.758,1.487 1.891,0.456c2.628,-2.404 2.673,-5.592 2.673,-8.719c0,-1.249 -0.091,-2.753 -1.732,-3.447c-0.862,-0.366 -1.691,-0.288 -2.199,-0.325l0,0.008l0,-0.004Z" style="fill:#ffbfd3;fill-rule:nonzero;"/><path d="M163.625,117.007c0.1,-7.819 2.332,-15.231 4.464,-22.664c0.704,-2.47 0.542,-5.111 1.699,-7.482c0.5,-1.027 0.808,-2.137 1.566,-3.045c0.579,-0.694 0.621,-1.253 -0.454,-1.545c-0.757,-0.201 -1.957,-0.259 -1.878,-1.2c0.079,-0.949 1.316,-1.019 2.128,-1.163c7.189,-1.266 13.661,1.151 16.039,8.378c1.474,4.495 2.186,9.417 -1.25,13.649c-2.19,2.696 -4.893,4.738 -8.525,5.214c-0.454,0.058 -1.124,-0.115 -1.316,0.382c-0.225,0.596 0.487,0.851 0.829,1.208c2.141,2.256 4.306,4.483 6.464,6.718c1.678,1.734 0.374,3.156 -1.246,3.67c-1.449,0.46 -2.823,0.176 -3.798,-1.06c-1.757,-2.215 -3.627,-4.348 -5.043,-6.809c-0.146,-0.246 -0.284,-0.505 -0.467,-0.727c-0.45,-0.538 -0.679,-1.557 -1.428,-1.451c-0.783,0.111 -0.454,1.13 -0.621,1.734c-0.487,1.747 -1.154,3.444 -1.691,5.165c-0.5,1.59 -0.716,3.242 -1.949,4.516c-0.433,0.448 -0.816,0.916 -1.52,0.998c-1.724,0.202 -2.191,-0.201 -2.112,-1.914c0.038,-0.859 0.079,-1.714 0.117,-2.581l-0.008,0.008Zm15.709,-23.058c-0.054,-2.626 -0.625,-5.107 -1.941,-7.392c-0.225,-0.394 -0.408,-1.019 -0.983,-0.904c-0.487,0.099 -0.399,0.707 -0.433,1.109c-0.395,5.009 -2.015,9.771 -2.948,14.669c-0.088,0.444 -0.6,0.928 -0.146,1.319c0.512,0.444 1.133,0.144 1.595,-0.202c2.89,-2.161 4.927,-4.807 4.848,-8.599l0.012,0l-0.004,0Z" style="fill:#ffbfd3;fill-rule:nonzero;"/><path d="M162.925,144.902c2.207,-0.369 4.036,0.514 5.335,2.305c0.95,1.319 0.691,3.016 0.916,4.541c0.196,1.356 0.134,2.761 -0.204,4.125c-0.079,0.312 -0.237,0.703 0.113,0.916c0.262,0.165 0.541,-0.078 0.803,-0.201c0.671,-0.312 1.146,-0.768 1.575,-1.401c1.42,-2.137 2.324,-4.541 4.11,-6.521c2.857,-3.176 8.226,-3.883 11.304,-0.949c1.607,1.532 1.957,3.743 1.711,5.851c-0.541,4.75 -1.449,9.426 -4.36,13.432c-1.154,1.586 -2.403,3.098 -3.636,4.626c-1.941,2.404 -7.505,3.838 -10.358,2.704c-1.986,-0.793 -2.686,-2.449 -3.103,-4.347c-0.137,-0.629 0.088,-1.677 -0.52,-1.808c-0.85,-0.177 -0.908,0.937 -1.233,1.5c-1.045,1.853 -2.349,3.508 -4.056,4.782c-3.153,2.359 -9.225,2.379 -11.016,-1.039c-0.633,-1.2 -0.7,-2.519 -0.737,-3.735c-0.113,-3.805 0.054,-7.634 1.499,-11.23c0.637,-1.586 1.054,-3.443 3.048,-4.104c0.338,-0.111 0.321,-0.337 0.205,-0.683c-0.604,-1.688 0,-3.098 1.141,-4.359c0.35,-0.39 0.716,-0.781 1.028,-1.208c1.554,-2.161 3.511,-3.525 6.447,-3.201l-0.012,0.008l0,-0.004Zm1.191,8.119c-0.054,-1.98 0.058,-3.299 -0.512,-4.593c-0.841,-1.911 -1.225,-2.133 -2.87,-0.892c-1.295,0.974 -3.211,1.635 -3.686,3.065c-0.462,1.41 -2.403,2.54 -1.257,4.409c0.066,0.103 -0.1,0.358 -0.171,0.534c-1.191,2.659 -1.47,5.527 -1.903,8.341c-0.421,2.765 -0.238,5.522 0.903,8.152c0.763,1.759 1.391,1.948 2.616,0.551c2.345,-2.675 4.173,-5.543 5.068,-9.126c0.921,-3.677 1.587,-7.334 1.812,-10.441Zm6.685,12.845c-0.034,1.475 0.362,2.859 0.758,4.236c0.249,0.859 0.499,2.001 1.436,2.182c1.012,0.193 1.691,-0.818 2.233,-1.574c2.424,-3.398 5.314,-6.508 6.076,-10.872c0.4,-2.285 1.304,-4.495 1.416,-6.845c0.067,-1.377 0.021,-2.782 -0.908,-3.949c-0.229,-0.292 -0.512,-0.727 -0.929,-0.366c-0.87,0.769 -2.003,1.085 -2.869,1.899c-1.508,1.401 -2.495,3.143 -3.594,4.811c-1.021,1.557 -2.178,3.11 -2.766,4.84c-0.604,1.775 -0.591,3.756 -0.841,5.646l-0.008,-0.008l-0.004,0Z" style="fill:#ffbfd3;fill-rule:nonzero;"/><path d="M65.536,81.745c2.765,0.123 5.26,1.356 7.359,3.254c2.549,2.301 5.51,4.039 8.159,6.184c2.661,2.161 4.84,4.783 6.822,7.56c1.075,1.508 2.503,2.748 3.149,4.585c0.92,2.638 1.337,5.358 1.574,8.099c0.158,1.836 -2.732,2.921 -4.627,1.902c-1.995,-1.072 -2.765,-3.139 -4.111,-4.737c-0.125,-0.144 -0.192,-0.333 -0.296,-0.494c-1.487,-2.272 -1.474,-2.255 -3.952,-1.014c-0.987,0.501 -2.02,0.916 -3.061,1.306c-1.233,0.46 -1.862,1.249 -1.778,2.597c0.033,0.505 -0.087,1.06 -0.275,1.533c-0.304,0.747 -0.337,1.701 -1.566,1.766c-1.191,0.058 -2.003,-0.238 -2.615,-1.319c-1.362,-2.391 -2.311,-4.955 -2.857,-7.601c-1.224,-5.958 -3.602,-11.55 -5.335,-17.339c-0.396,-1.319 -0.637,-2.691 -1.258,-3.945c-0.317,-0.637 0.183,-0.986 0.625,-1.274c1.166,-0.752 2.491,-0.998 4.044,-1.076l0,0.012Zm6.801,12.791c-0.125,0.09 -0.242,0.181 -0.371,0.271c1.12,2.112 1.903,4.302 2.112,6.69c0.196,2.227 0.296,2.214 2.54,1.598c0.275,-0.078 0.566,-0.115 0.85,-0.144c1.416,-0.144 1.641,-0.481 0.837,-1.635c-1.112,-1.599 -2.27,-3.176 -3.528,-4.66c-0.683,-0.814 -1.62,-1.418 -2.449,-2.116l0.008,-0.008l0,0.004Z" style="fill:#ffbfd3;fill-rule:nonzero;"/><path d="M44.25,115.306c-0.5,-5.6 -0.229,-11.295 -1.483,-16.793c-0.554,-2.424 0.217,-4.565 0.192,-6.841c0,-0.325 0.204,-0.493 0.512,-0.596c1.112,-0.378 3.086,0.099 3.865,1.027c1.416,1.697 3.24,2.753 5.16,3.821c2.757,1.529 5.302,3.419 7.751,5.436c2.178,1.791 4.111,3.788 5.697,6.04c1.812,2.56 3.548,5.198 4.681,8.16c0.625,1.635 1.27,3.267 1.949,4.877c1.012,2.412 -0.008,4.565 -0.795,6.763c-0.133,0.366 -0.337,0.358 -0.666,0.202c-1.091,-0.493 -1.924,-1.175 -2.378,-2.346c-1.224,-3.119 -3.153,-5.872 -4.819,-8.765c-0.791,-1.364 -2.253,-2.07 -3.228,-3.262c-0.304,-0.37 -0.633,-0.246 -1.012,0c-2.153,1.418 -4.523,2.457 -6.668,3.899c-1.066,0.715 -1.803,1.356 -1.924,2.753c-0.158,1.792 -0.546,3.575 -1.266,5.268c-0.77,1.812 -2.316,1.154 -3.636,1.208c-1.237,0.053 -1.112,-1.007 -1.245,-1.742c-0.554,-3.016 -0.575,-6.073 -0.691,-9.122l0,0.008l0.004,0.004Zm7.301,-2.448c0.125,-0.091 0.296,-0.19 0.429,-0.317c1.303,-1.22 2.707,-2.293 4.386,-2.987c0.7,-0.292 0.362,-0.781 0.037,-1.155c-0.566,-0.645 -1.145,-1.286 -1.766,-1.877c-1.578,-1.521 -2.607,-3.526 -4.444,-4.808c-0.258,-0.18 -0.487,-0.571 -0.85,-0.304c-0.258,0.189 -0.146,0.539 -0.021,0.797c0.354,0.707 0.329,1.475 0.429,2.236c0.329,2.502 0.704,4.996 1.079,7.49c0.058,0.39 0.046,0.904 0.725,0.929l-0.008,0l0.004,-0.004Z" style="fill:#ffbfd3;fill-rule:nonzero;"/><path d="M193.936,107.241c-0.304,1.976 0.408,3.858 0.587,5.793c0.058,0.682 0.487,1.073 0.995,0.391c0.658,-0.896 1.646,-1.311 2.483,-1.944c0.762,-0.583 1.595,-1.04 1.915,-2.054c0.192,-0.584 0.804,-0.773 1.396,-0.896c0.304,-0.066 0.758,-0.025 0.749,-0.493c0,-0.358 -0.37,-0.403 -0.645,-0.448c-1.225,-0.21 -1.974,-1.163 -2.924,-1.8c-0.85,-0.571 -1.562,-1.495 -1.141,-2.403c0.421,-0.904 1.608,-0.859 2.595,-0.769c3.356,0.325 6.268,1.788 9.075,3.501c0.658,0.403 1.345,0.785 1.907,1.286c0.575,0.514 1.02,1.105 0.546,2.009c-0.454,0.859 -1.112,0.929 -1.937,0.838c-3.378,-0.369 -2.978,-1.084 -3.211,2.659c-0.192,2.954 -1.27,5.658 -2.166,8.407c-0.341,1.051 -0.27,2.058 -0.37,3.085c-0.113,1.163 -0.575,1.853 -1.849,1.915c-0.883,0.045 -1.758,-0.012 -2.595,-0.209c-1.645,-0.383 -2.22,-1.899 -1.47,-3.649c0.599,-1.409 0.125,-2.133 -1.429,-2.17c-1.857,-0.045 -3.64,-0.517 -5.347,-1.171c-2.537,-0.969 -3.353,-3.168 -3.978,-5.571c-0.808,-3.119 -0.295,-6.127 0.292,-9.183c0.462,-2.396 0.974,-4.75 1.849,-7.035c0.67,-1.755 1.903,-3.242 2.49,-4.996c0.858,-2.564 2.699,-4.351 4.465,-6.237c0.796,-0.85 1.778,-1.298 2.845,-1.15c2.29,0.316 4.602,0.69 6.484,2.223c0.113,0.09 0.229,0.169 0.342,0.267c1.158,1.015 1.645,2.716 1.02,3.567c-0.645,0.875 -1.837,0.908 -3.444,0.136c-0.717,-0.345 -1.283,-0.851 -1.754,-1.467c-0.612,-0.814 -1.153,-0.682 -1.711,0.058c-2.445,3.188 -4.352,6.665 -5.223,10.58c-0.5,2.268 -1.091,4.549 -0.841,6.932Z" style="fill:#ffbfd3;fill-rule:nonzero;"/><path d="M104.885,120.023c-2.732,-0.567 -5.71,-0.369 -7.943,-2.547c-0.858,-0.83 -1.362,-1.775 -1.653,-2.942c-1.441,-5.868 -1.516,-11.908 -2.47,-17.833c-0.416,-2.593 -1.408,-5.066 -1.803,-7.638c-0.637,-4.146 -2.037,-8.107 -2.649,-12.252c-0.158,-1.077 0.262,-1.541 1.2,-1.722c1.329,-0.267 2.428,0.078 3.386,1.118c1.587,1.734 2.053,3.944 2.911,6.003c1.883,4.528 4.048,8.953 5.806,13.526c0.857,2.227 1.02,4.717 1.578,7.067c0.808,3.423 0.895,7.01 2.382,10.276c0.646,1.418 0.792,1.443 2.02,0.436c0.929,-0.76 1.858,-1.529 2.786,-2.293c1.325,-1.093 3.241,-1.241 4.761,-0.423c0.512,0.279 0.67,0.67 0.612,1.175c-0.508,4.471 -1.816,7.145 -6.755,7.449c-1.408,0.091 -2.712,0.793 -4.169,0.596l-0.009,0l0.009,0.004Z" style="fill:#ffbfd3;fill-rule:nonzero;"/><path d="M191.795,180.099c-1.77,-0.214 -3.036,-0.021 -4.352,-0.415c-0.875,-0.267 -1.987,0.382 -3.061,0.349c-1.062,-0.033 -1.566,-0.37 -1.391,-1.434c0.179,-1.06 -0.762,-1.767 -0.858,-2.638c-0.1,-0.929 1.349,-0.74 1.766,-1.742c1.303,-3.143 2.053,-6.451 3.069,-9.672c1.45,-4.619 3.149,-9.089 5.394,-13.375c0.224,-0.435 0.474,-0.657 0.895,-0.817c1.224,-0.481 2.503,-0.481 3.707,-0.111c4.872,1.495 8.283,4.52 9.779,9.434c1.47,4.828 0.907,9.306 -1.904,13.649c-3.227,4.976 -7.946,6.595 -13.048,6.776l0.008,0l-0.004,-0.004Zm9.812,-14.87c-0.112,-1.032 -0.158,-2.034 -0.337,-3.02c-0.633,-3.526 -2.153,-6.566 -5.102,-8.781c-1.099,-0.826 -1.437,-0.67 -1.612,0.703c-0.112,0.896 -0.145,1.779 -0.429,2.671c-0.653,2.038 -1.391,4.1 -1.653,6.204c-0.554,4.405 -2.336,8.439 -3.573,12.626c-0.329,1.118 -0.125,1.455 0.887,1.697c2.699,0.645 6.289,-0.969 8.129,-3.032c1.587,-1.775 1.995,-3.949 3.003,-5.913c0.525,-1.019 0.575,-2.103 0.683,-3.163l0,0.012l0.004,-0.004Z" style="fill:#ffbfd3;fill-rule:nonzero;"/><path d="M67.323,157.369l0,-3.008c0.013,-2.876 1.995,-4.885 4.964,-4.873c1.42,0.008 2.87,-0.317 4.281,0.324c2.536,1.155 3.503,3.513 4.406,5.782c1.782,4.482 0.737,8.217 -2.899,11.303c-0.691,0.583 -1.47,1.06 -2.416,1.249c-0.6,0.115 -1.224,0.423 -0.441,1.138c2.366,2.161 4.344,4.721 6.972,6.62c0.612,0.443 1.091,1.097 1.949,1.162c0.45,0.033 0.704,0.313 0.691,0.761c-0.021,0.493 -0.4,0.616 -0.804,0.645c-1.833,0.135 -3.661,-0.054 -5.064,-1.266c-1.179,-1.031 -2.482,-1.98 -3.386,-3.312c-0.283,-0.423 -0.666,-0.994 -1.249,-0.752c-0.579,0.239 -0.183,0.847 -0.167,1.286c0.071,1.377 0.429,2.737 0.133,4.126c-0.196,0.92 -0.604,1.635 -1.645,1.701c-0.999,0.057 -1.924,-0.148 -2.482,-1.105c-0.779,-1.332 -0.77,-2.852 -0.95,-4.294c-0.704,-5.822 -1.474,-11.632 -1.903,-17.487l0.008,0Zm9.183,2.185c0.033,-1.195 -0.1,-2.235 -0.341,-3.266c-0.416,-1.742 -1.041,-3.386 -2.299,-4.717c-0.729,-0.772 -1.495,-0.592 -2.357,-0.123c-0.85,0.46 -0.783,1.006 -0.6,1.791c0.341,1.434 0.762,2.905 0.762,4.351c0,2.659 0.858,5.157 1.166,7.758c0.079,0.649 0.541,0.892 0.966,0.325c1.416,-1.858 3.107,-3.624 2.695,-6.119l0.008,0Z" style="fill:#ffbfd3;fill-rule:nonzero;"/><path d="M98.967,29.263c-0.262,-2.675 -0.487,-5.358 -0.816,-8.029c-0.15,-1.216 0.087,-1.923 1.474,-2.001c2.199,-0.123 4.352,-0.875 6.584,-0.596c1.062,0.136 1.962,-0.39 2.949,-0.534c3.856,-0.551 7.717,-1.085 11.574,-1.623c0.758,-0.103 1.532,-0.123 2.278,-0.304c0.883,-0.21 1.124,0.181 1.199,0.937c0.15,1.598 0.35,3.197 0.5,4.795c0.217,2.215 0.396,4.438 0.633,6.652c0.117,1.072 -0.104,1.631 -1.37,1.8c-4.248,0.567 -8.467,1.389 -12.719,1.89c-3.728,0.435 -7.472,0.735 -11.187,1.307c-0.737,0.111 -0.954,-0.234 -0.987,-0.859c-0.058,-1.142 -0.125,-2.28 -0.191,-3.423c0.025,0 0.054,0 0.087,-0.008l-0.008,0l0,-0.004Zm22.102,-4.84c-0.033,-3.542 -0.025,-3.456 -3.582,-2.962c-4.581,0.637 -9.179,1.187 -13.785,1.619c-1.329,0.123 -1.645,0.567 -1.508,1.746c0.508,4.409 0.592,4.52 5.115,4.08c3.59,-0.349 7.126,-1.142 10.741,-1.274c3.048,-0.111 3.048,-0.156 3.015,-3.209l0.008,0l-0.004,0Z" style="fill:#ffbfd3;fill-rule:nonzero;"/><path d="M42.88,151.69c-0.283,4.314 0.712,5.444 5.756,7.573c1.812,0.768 3.59,1.631 5.464,2.26c0.895,0.3 1.124,1.286 1.595,1.976c2.166,3.176 3.357,6.665 1.895,10.399c-1.187,3.02 -3.652,4.783 -6.893,5.547c-2.799,0.662 -5.477,0.551 -8.021,-0.78c-3.115,-1.632 -3.074,-4.463 -1.658,-7.08c0.383,-0.707 1.224,-0.403 1.87,-0.357c0.612,0.045 0.729,0.546 0.716,1.06c-0.033,1.064 0,2.091 0.783,2.954c2.199,2.428 4.077,2.395 6.322,0c3.161,-3.377 2.166,-11.554 -3.357,-13.744c-0.995,-0.394 -2.145,-0.514 -3.174,-0.92c-5.443,-2.178 -7.488,-8.161 -4.498,-13.169c1.316,-2.203 2.786,-4.208 5.373,-5.14c2.112,-0.761 4.181,-0.58 6.255,0.069c0.387,0.124 0.933,0.313 0.737,0.863c-0.158,0.46 -0.716,0.637 -1.099,0.428c-2.278,-1.241 -3.919,0.09 -5.385,1.429c-1.624,1.48 -2.811,3.296 -2.665,5.65c0.025,0.382 0,0.768 0,0.962l-0.012,0.012l-0.004,0.008Z" style="fill:#ffbfd3;fill-rule:nonzero;"/><path d="M108.791,179.018c-2.698,-0.02 -4.635,-1.274 -5.589,-3.755c-0.6,-1.558 -0.904,-3.168 -1.041,-4.861c-0.25,-3.074 -0.795,-6.126 -0.887,-9.216c-0.092,-3.008 -0.271,-6.007 -0.342,-9.011c-0.02,-0.859 -0.079,-1.5 -1.132,-1.623c-0.579,-0.066 -0.933,-0.37 -0.433,-0.961c0.829,-0.982 1.554,-2.055 2.287,-3.094c1.52,-2.178 3.911,-2.449 6.11,-3.168c0.466,-0.148 0.987,0 1.232,0.517c0.229,0.489 -0.07,0.818 -0.416,1.11c-1.312,1.13 -2.616,2.268 -3.952,3.373c-0.534,0.436 -0.625,0.818 -0.534,1.566c0.329,2.551 1.112,5.033 1.192,7.617c0.012,0.378 -0.046,0.814 0.354,1.028c0.479,0.267 0.841,-0.091 1.153,-0.366c1.404,-1.216 3.199,-1.512 4.873,-2.116c0.496,-0.181 1.054,-0.111 1.324,0.304c0.317,0.481 -0.291,0.727 -0.545,1.027c-1.454,1.689 -3.182,3.061 -5.169,4.084c-0.941,0.489 -1.37,1.015 -1.187,2.24c0.554,3.681 1.421,7.276 2.445,10.847c0.429,1.5 0.858,1.701 2.049,0.719c1.416,-1.163 2.537,-2.613 3.39,-4.236c0.292,-0.547 0.592,-1.032 1.316,-0.826c0.738,0.214 0.488,0.85 0.479,1.331c-0.012,1.294 -0.928,2.272 -1.312,3.447c-0.874,2.675 -2.836,4.035 -5.668,4.015l0.008,-0.008l-0.004,0.016Z" style="fill:#ffbfd3;fill-rule:nonzero;"/><path d="M93.786,180.949c-2.969,-0.357 -5.202,-1.327 -5.96,-4.951c-1.454,-6.977 -2.278,-14.032 -3.344,-21.058c-0.25,-1.656 0,-3.332 -0.237,-5c-0.092,-0.674 0.291,-1.545 0.987,-1.8c1.916,-0.702 3.432,-2.145 5.406,-2.728c0.895,-0.267 1.782,-0.448 2.707,-0.395c0.704,0.037 0.87,0.424 0.383,0.929c-1.437,1.487 -2.924,2.95 -5.023,3.464c-0.841,0.201 -1.12,0.546 -0.999,1.376c0.321,2.223 0.887,4.393 1.483,6.554c0.304,1.105 0.541,2.223 0.795,3.332c0.133,0.567 0.45,0.97 0.987,0.505c1.416,-1.22 3.628,-1.183 4.694,-2.962c0.237,-0.394 0.783,-0.325 1.212,-0.189c0.5,0.164 0.621,0.583 0.579,1.04c-0.079,0.936 -0.487,1.651 -1.224,2.305c-1.349,1.195 -2.903,2.046 -4.477,2.876c-0.962,0.505 -1.337,1.22 -1.091,2.227c0.875,3.603 1.249,7.326 2.649,10.81c0.612,1.52 0.974,1.59 2.457,0.941c1.757,-0.772 2.62,-2.334 3.698,-3.723c0.237,-0.299 0.375,-0.682 0.633,-0.953c0.421,-0.448 0.983,-0.349 1.496,-0.189c0.37,0.115 0.224,0.448 0.183,0.736c-0.487,3.431 -4.565,6.931 -7.988,6.853l-0.004,0Z" style="fill:#ffbfd3;fill-rule:nonzero;"/><path d="M134.771,162.242c-0.271,-3.879 0.1,-7.737 0.558,-11.571c0.354,-2.938 1.304,-5.789 2.728,-8.394c0.875,-1.611 2.607,-2.412 4.377,-2.831c2.712,-0.645 5.444,-0.806 8.084,0.366c0.508,0.225 1.216,0.443 0.975,1.187c-0.229,0.703 -0.929,0.571 -1.495,0.493c-1.5,-0.21 -3.016,-0.057 -4.465,0.164c-2.207,0.337 -3.199,2.227 -3.99,4.007c-0.941,2.132 -1.712,4.347 -1.645,6.763c0.033,1.13 -0.158,2.284 -0.387,3.402c-0.242,1.154 -0.104,1.676 1.303,1.557c1.824,-0.148 3.674,-0.066 5.51,-0.058c0.421,0 0.95,-0.078 1.021,0.526c0.058,0.502 -0.304,0.752 -0.746,0.921c-1.687,0.645 -3.423,0.974 -5.239,0.969c-1.983,-0.008 -1.941,0.021 -2.037,2.034c-0.196,4.339 -0.495,8.674 -0.479,13.017c0,0.752 -0.145,1.52 -0.291,2.268c-0.15,0.769 -0.567,1.364 -1.47,1.266c-0.804,-0.086 -1.225,-0.506 -1.358,-1.385c-0.729,-4.877 -0.633,-9.795 -0.954,-14.693l-0.008,-0.012l0.008,0.004Z" style="fill:#ffbfd3;fill-rule:nonzero;"/><path d="M69.809,144.709c-2.332,0.473 -4.111,2.116 -6.372,2.63c-1.453,0.333 -1.799,1.052 -1.624,2.436c0.508,4.072 1.449,8.074 2.12,12.113c0.704,4.228 1.383,8.465 2.082,12.693c0.183,1.105 -0.021,2.19 -0.025,3.287c0,1.047 -0.441,1.791 -1.541,1.91c-1.02,0.103 -1.562,-0.538 -1.916,-1.421c-1.258,-3.131 -1.753,-6.431 -2.245,-9.726c-0.758,-5.091 -0.779,-10.252 -1.279,-15.371c-0.117,-1.188 -0.183,-2.383 0.058,-3.567c0.196,-0.961 -0.021,-1.331 -1.12,-1.039c-2.224,0.596 -4.523,0.234 -6.789,0.337c-0.321,0.012 -0.725,-0.021 -0.791,-0.456c-0.054,-0.35 0.275,-0.448 0.533,-0.584c0.95,-0.505 1.962,-0.838 3.036,-0.904c2.291,-0.144 4.477,-0.719 6.63,-1.434c2.632,-0.875 5.431,-0.83 8.125,-1.389c0.35,-0.069 0.783,-0.111 1.12,0.481l-0.004,0.004Z" style="fill:#ffbfd3;fill-rule:nonzero;"/><path d="M131.623,142.979c-0.95,1.171 -2.187,1.558 -3.457,1.792c-1.47,0.271 -2.957,0.411 -4.444,0.571c-1.033,0.111 -1.516,0.501 -1.462,1.652c0.371,8.008 1.008,16 1.166,24.016c0.034,1.808 0.225,3.62 -0.67,5.333c-0.454,0.863 -1.062,1.356 -2.028,1.34c-0.929,-0.021 -1.029,-0.785 -1.329,-1.455c-0.321,-0.727 -0.441,-1.434 -0.441,-2.21c0.012,-8.115 0.008,-16.234 0,-24.345c0,-0.863 0.058,-1.714 0.387,-2.527c0.387,-0.941 0.087,-1.397 -0.954,-1.557c-1.757,-0.28 -3.582,-0.403 -5.089,-1.488c-0.475,-0.337 -1.304,-0.645 -1.041,-1.364c0.262,-0.719 1.153,-0.559 1.674,-0.37c5.235,1.878 10.541,0.391 15.809,0.395c0.567,0 1.146,-0.169 1.87,0.234l0.013,-0.012l-0.004,-0.005Z" style="fill:#ffbfd3;fill-rule:nonzero;"/></svg>