<svg width="17" height="17" viewBox="0 0 17 17" fill="none" xmlns="http://www.w3.org/2000/svg">
<rect width="17" height="17" rx="8.5" fill="#CCA06E"/>
<path d="M12.1429 7.2854L11.8696 9.77469C11.7685 10.6854 11.4228 11.5518 10.8691 12.2819C10.3154 13.0119 9.57435 13.5785 8.72464 13.9215C8.58039 13.9789 8.41961 13.9789 8.27536 13.9215C7.42565 13.5785 6.68462 13.0119 6.13091 12.2819C5.5772 11.5518 5.23145 10.6854 5.13036 9.77469L4.85714 7.2854C4.69612 7.2854 4.54169 7.22143 4.42783 7.10757C4.31397 6.99371 4.25 6.83928 4.25 6.67826C4.25 6.19518 4.4419 5.7319 4.78348 5.39031C5.12507 5.04873 5.58836 4.85683 6.07143 4.85683H8.5H10.9286C11.4116 4.85683 11.8749 5.04873 12.2165 5.39031C12.5581 5.7319 12.75 6.19518 12.75 6.67826C12.75 6.83928 12.686 6.99371 12.5722 7.10757C12.4583 7.22143 12.3039 7.2854 12.1429 7.2854Z" fill="#CCA06E"/>
<path d="M12.1429 7.2854L11.8696 9.77469C11.7685 10.6854 11.4228 11.5518 10.8691 12.2819C10.3154 13.0119 9.57435 13.5785 8.72464 13.9215C8.58039 13.9789 8.41961 13.9789 8.27536 13.9215C7.42565 13.5785 6.68463 13.0119 6.13091 12.2819C5.5772 11.5518 5.23145 10.6854 5.13036 9.77469L4.85714 7.2854M12.1429 7.2854C12.3039 7.2854 12.4583 7.22143 12.5722 7.10757C12.686 6.99371 12.75 6.83928 12.75 6.67826C12.75 6.19518 12.5581 5.7319 12.2165 5.39031C11.8749 5.04873 11.4116 4.85683 10.9286 4.85683H6.07143C5.58836 4.85683 5.12507 5.04873 4.78348 5.39031C4.4419 5.7319 4.25 6.19518 4.25 6.67826C4.25 6.83928 4.31397 6.99371 4.42783 7.10757C4.54169 7.22143 4.69612 7.2854 4.85714 7.2854M12.1429 7.2854H4.85714M9.10714 3.0354C8.70903 3.55876 8.49552 4.19927 8.5 4.85683" stroke="black" stroke-width="0.5" stroke-linecap="round" stroke-linejoin="round"/>
</svg>
