<svg width="17" height="17" viewBox="0 0 17 17" fill="none" xmlns="http://www.w3.org/2000/svg">
<rect width="17" height="17" rx="8.5" fill="#F3C0C0"/>
<path d="M4.42712 4.16663C3.54613 4.16663 2.83337 4.87939 2.83337 5.76038C2.83337 6.59931 3.48194 7.28551 4.30317 7.3497C4.55108 9.15152 6.09613 10.5416 7.96879 10.5416H9.20837V6.29163H4.42712C4.13272 6.29163 3.89587 6.05478 3.89587 5.76038C3.89587 5.46597 4.13272 5.22913 4.42712 5.22913H12.9271C13.2215 5.22913 13.4584 4.99228 13.4584 4.69788C13.4584 4.40347 13.2215 4.16663 12.9271 4.16663H4.42712ZM7.79171 13.552C7.79171 13.8464 8.02856 14.0833 8.32296 14.0833H9.91671V12.4851L8.49783 11.9893C8.22113 11.8919 7.91788 12.038 7.82048 12.3147C7.72309 12.5914 7.86918 12.8946 8.14587 12.992L8.24548 13.0274C7.99093 13.0628 7.79171 13.2842 7.79171 13.552ZM10.625 14.0678C11.4308 13.9948 12.1635 13.6782 12.7523 13.1912L10.8375 12.4254C10.7711 12.4652 10.7003 12.4962 10.625 12.5205V14.0678ZM13.2946 12.6445C13.8391 11.9738 14.1667 11.1194 14.1667 10.1875C14.1667 9.91519 14.1379 9.64957 14.0848 9.3928L11.3068 11.3186C11.3245 11.3938 11.3334 11.4735 11.3334 11.5532C11.3334 11.655 11.3179 11.7524 11.2913 11.8432L13.2946 12.6445ZM10.2709 6.29163H9.91671V10.5416H10.3218C10.5409 10.5416 10.7446 10.6125 10.9106 10.7298L13.8657 8.68446C13.2769 7.27887 11.889 6.29163 10.2709 6.29163ZM6.55212 7.70829C6.55212 7.5674 6.60809 7.43227 6.70772 7.33264C6.80735 7.23301 6.94248 7.17704 7.08337 7.17704C7.22427 7.17704 7.3594 7.23301 7.45902 7.33264C7.55865 7.43227 7.61462 7.5674 7.61462 7.70829C7.61462 7.84919 7.55865 7.98431 7.45902 8.08394C7.3594 8.18357 7.22427 8.23954 7.08337 8.23954C6.94248 8.23954 6.80735 8.18357 6.70772 8.08394C6.60809 7.98431 6.55212 7.84919 6.55212 7.70829Z" fill="black"/>
</svg>
